<svg width="234" height="234" viewBox="0 0 234 234" fill="none" xmlns="http://www.w3.org/2000/svg"><rect width="234" height="234" rx="69" fill="#E9463C"/><path fill-rule="evenodd" clip-rule="evenodd" d="M83.813 62.7c-1.84 0-3.605.722-4.906 2.006a6.807 6.807 0 0 0-2.032 4.844v95.9c0 1.817.73 3.559 2.032 4.844a6.985 6.985 0 0 0 4.906 2.006h69.375a6.985 6.985 0 0 0 4.905-2.006 6.808 6.808 0 0 0 2.032-4.844V99.787l-37.56-37.086-38.752-.001Zm-14.717-7.681A20.948 20.948 0 0 1 83.812 49h38.753a13.97 13.97 0 0 1 9.811 4.013m0 0L169.935 90.1A13.62 13.62 0 0 1 174 99.784v65.666a20.42 20.42 0 0 1-6.096 14.531A20.947 20.947 0 0 1 153.188 186H83.813a20.948 20.948 0 0 1-14.717-6.019A20.42 20.42 0 0 1 63 165.45v-95.9a20.42 20.42 0 0 1 6.096-14.531m70.217 48.781c3.831 0 6.937 3.067 6.937 6.85v41.1c0 3.783-3.106 6.85-6.937 6.85-3.832 0-6.938-3.067-6.938-6.85v-41.1c0-3.783 3.106-6.85 6.938-6.85ZM118.5 117.5c3.831 0 6.938 3.067 6.938 6.85v27.4c0 3.783-3.107 6.85-6.938 6.85-3.831 0-6.937-3.067-6.937-6.85v-27.4c0-3.783 3.106-6.85 6.937-6.85Zm-20.813 13.7c3.832 0 6.938 3.067 6.938 6.85v13.7c0 3.783-3.106 6.85-6.938 6.85-3.831 0-6.937-3.067-6.937-6.85v-13.7c0-3.783 3.106-6.85 6.938-6.85Z" fill="#fff"/></svg>
